<svg width="390" height="844" viewBox="0 0 390 844" fill="none" xmlns="http://www.w3.org/2000/svg">
<g clip-path="url(#clip0_23_24)">
<rect width="390" height="844" fill="url(#paint0_linear_23_24)"/>
<path d="M180.389 212.5C177.516 212.5 174.76 211.359 172.729 209.327C170.697 207.295 169.556 204.54 169.556 201.667V187.222C169.556 184.349 170.697 181.593 172.729 179.562C174.76 177.53 177.516 176.389 180.389 176.389C182.566 176.367 202.056 172.778 202.056 158.333C202.056 151.111 194.833 143.889 184 143.889C175.185 143.889 169.556 151.111 169.556 154.722C169.556 156.145 169.275 157.554 168.731 158.868C168.186 160.182 167.389 161.377 166.383 162.382C165.377 163.388 164.182 164.186 162.868 164.731C161.554 165.275 160.145 165.556 158.722 165.556C157.3 165.556 155.891 165.275 154.576 164.731C153.262 164.186 152.068 163.388 151.062 162.382C150.056 161.377 149.258 160.182 148.714 158.868C148.169 157.554 147.889 156.145 147.889 154.722C147.889 137.107 164.428 122.222 184 122.222C212.889 122.222 223.722 143.824 223.722 161.944C223.722 176.912 215.5 188.352 200.564 194.156C197.314 195.423 194.1 196.275 191.222 196.853V201.667C191.222 204.54 190.081 207.295 188.049 209.327C186.018 211.359 183.262 212.5 180.389 212.5Z" fill="#9B5151"/>
<path d="M180.389 241.389C186.372 241.389 191.222 236.539 191.222 230.555C191.222 224.572 186.372 219.722 180.389 219.722C174.406 219.722 169.556 224.572 169.556 230.555C169.556 236.539 174.406 241.389 180.389 241.389Z" fill="#9B5151"/>
<path d="M268.778 548C267.01 548 265.314 547.298 264.064 546.047C262.813 544.797 262.111 543.101 262.111 541.333V532.444C262.111 530.676 262.813 528.981 264.064 527.73C265.314 526.48 267.01 525.778 268.778 525.778C270.118 525.764 282.111 523.555 282.111 514.667C282.111 510.222 277.667 505.778 271 505.778C265.576 505.778 262.111 510.222 262.111 512.444C262.111 513.32 261.939 514.187 261.604 514.996C261.269 515.804 260.778 516.539 260.158 517.158C259.539 517.777 258.804 518.269 257.996 518.604C257.187 518.939 256.32 519.111 255.444 519.111C254.569 519.111 253.702 518.939 252.893 518.604C252.084 518.269 251.349 517.777 250.73 517.158C250.111 516.539 249.62 515.804 249.285 514.996C248.95 514.187 248.778 513.32 248.778 512.444C248.778 501.604 258.956 492.444 271 492.444C288.778 492.444 295.444 505.738 295.444 516.889C295.444 526.1 290.384 533.14 281.193 536.711C279.193 537.491 277.216 538.015 275.444 538.371V541.333C275.444 543.101 274.742 544.797 273.492 546.047C272.242 547.298 270.546 548 268.778 548Z" fill="#9B5151"/>
<path d="M268.778 565.778C272.46 565.778 275.444 562.793 275.444 559.111C275.444 555.429 272.46 552.444 268.778 552.444C265.096 552.444 262.111 555.429 262.111 559.111C262.111 562.793 265.096 565.778 268.778 565.778Z" fill="#9B5151"/>
<path d="M291.778 418C290.01 418 288.314 417.298 287.064 416.047C285.813 414.797 285.111 413.101 285.111 411.333V402.444C285.111 400.676 285.813 398.981 287.064 397.73C288.314 396.48 290.01 395.778 291.778 395.778C293.118 395.764 305.111 393.555 305.111 384.667C305.111 380.222 300.667 375.778 294 375.778C288.576 375.778 285.111 380.222 285.111 382.444C285.111 383.32 284.939 384.187 284.604 384.996C284.269 385.804 283.778 386.539 283.158 387.158C282.539 387.777 281.804 388.269 280.996 388.604C280.187 388.939 279.32 389.111 278.444 389.111C277.569 389.111 276.702 388.939 275.893 388.604C275.084 388.269 274.349 387.777 273.73 387.158C273.111 386.539 272.62 385.804 272.285 384.996C271.95 384.187 271.778 383.32 271.778 382.444C271.778 371.604 281.956 362.444 294 362.444C311.778 362.444 318.444 375.738 318.444 386.889C318.444 396.1 313.384 403.14 304.193 406.711C302.193 407.491 300.216 408.015 298.444 408.371V411.333C298.444 413.101 297.742 414.797 296.492 416.047C295.242 417.298 293.546 418 291.778 418Z" fill="#E97878"/>
<path d="M291.778 435.778C295.46 435.778 298.444 432.793 298.444 429.111C298.444 425.429 295.46 422.444 291.778 422.444C288.096 422.444 285.111 425.429 285.111 429.111C285.111 432.793 288.096 435.778 291.778 435.778Z" fill="#E97878"/>
<path d="M269.778 234C268.01 234 266.314 233.298 265.064 232.047C263.813 230.797 263.111 229.101 263.111 227.333V218.444C263.111 216.676 263.813 214.981 265.064 213.73C266.314 212.48 268.01 211.778 269.778 211.778C271.118 211.764 283.111 209.555 283.111 200.667C283.111 196.222 278.667 191.778 272 191.778C266.576 191.778 263.111 196.222 263.111 198.444C263.111 199.32 262.939 200.187 262.604 200.996C262.269 201.804 261.778 202.539 261.158 203.158C260.539 203.777 259.804 204.269 258.996 204.604C258.187 204.939 257.32 205.111 256.444 205.111C255.569 205.111 254.702 204.939 253.893 204.604C253.084 204.269 252.349 203.777 251.73 203.158C251.111 202.539 250.62 201.804 250.285 200.996C249.95 200.187 249.778 199.32 249.778 198.444C249.778 187.604 259.956 178.444 272 178.444C289.778 178.444 296.444 191.738 296.444 202.889C296.444 212.1 291.384 219.14 282.193 222.711C280.193 223.491 278.216 224.015 276.444 224.371V227.333C276.444 229.101 275.742 230.797 274.492 232.047C273.242 233.298 271.546 234 269.778 234Z" fill="#9B5151"/>
<path d="M269.778 251.778C273.46 251.778 276.444 248.793 276.444 245.111C276.444 241.429 273.46 238.444 269.778 238.444C266.096 238.444 263.111 241.429 263.111 245.111C263.111 248.793 266.096 251.778 269.778 251.778Z" fill="#9B5151"/>
<path d="M185.389 504.5C182.516 504.5 179.76 503.359 177.729 501.327C175.697 499.295 174.556 496.54 174.556 493.667V479.222C174.556 476.349 175.697 473.593 177.729 471.562C179.76 469.53 182.516 468.389 185.389 468.389C187.566 468.367 207.056 464.778 207.056 450.333C207.056 443.111 199.833 435.889 189 435.889C180.185 435.889 174.556 443.111 174.556 446.722C174.556 448.145 174.275 449.554 173.731 450.868C173.186 452.182 172.389 453.377 171.383 454.382C170.377 455.388 169.182 456.186 167.868 456.731C166.554 457.275 165.145 457.556 163.722 457.556C162.3 457.556 160.891 457.275 159.576 456.731C158.262 456.186 157.068 455.388 156.062 454.382C155.056 453.377 154.258 452.182 153.714 450.868C153.169 449.554 152.889 448.145 152.889 446.722C152.889 429.107 169.428 414.222 189 414.222C217.889 414.222 228.722 435.824 228.722 453.944C228.722 468.912 220.5 480.352 205.564 486.156C202.314 487.423 199.1 488.275 196.222 488.853V493.667C196.222 496.54 195.081 499.295 193.049 501.327C191.018 503.359 188.262 504.5 185.389 504.5Z" fill="#E97878"/>
<path d="M185.389 533.389C191.372 533.389 196.222 528.539 196.222 522.555C196.222 516.572 191.372 511.722 185.389 511.722C179.406 511.722 174.556 516.572 174.556 522.555C174.556 528.539 179.406 533.389 185.389 533.389Z" fill="#E97878"/>
<path d="M331.611 167.5C330.506 167.5 329.446 167.061 328.665 166.28C327.883 165.498 327.444 164.438 327.444 163.333V157.778C327.444 156.673 327.883 155.613 328.665 154.832C329.446 154.05 330.506 153.611 331.611 153.611C332.449 153.603 339.944 152.222 339.944 146.667C339.944 143.889 337.167 141.111 333 141.111C329.61 141.111 327.444 143.889 327.444 145.278C327.444 145.825 327.337 146.367 327.127 146.872C326.918 147.378 326.611 147.837 326.224 148.224C325.837 148.611 325.378 148.918 324.872 149.127C324.367 149.337 323.825 149.444 323.278 149.444C322.731 149.444 322.189 149.337 321.683 149.127C321.178 148.918 320.718 148.611 320.332 148.224C319.945 147.837 319.638 147.378 319.428 146.872C319.219 146.367 319.111 145.825 319.111 145.278C319.111 138.503 325.472 132.778 333 132.778C344.111 132.778 348.278 141.086 348.278 148.056C348.278 153.813 345.115 158.213 339.371 160.444C338.121 160.932 336.885 161.26 335.778 161.482V163.333C335.778 164.438 335.339 165.498 334.557 166.28C333.776 167.061 332.716 167.5 331.611 167.5Z" fill="#9B5151"/>
<path d="M331.611 178.611C333.912 178.611 335.778 176.746 335.778 174.444C335.778 172.143 333.912 170.278 331.611 170.278C329.31 170.278 327.444 172.143 327.444 174.444C327.444 176.746 329.31 178.611 331.611 178.611Z" fill="#9B5151"/>
<path d="M330.611 684.5C329.506 684.5 328.446 684.061 327.665 683.28C326.883 682.498 326.444 681.438 326.444 680.333V674.778C326.444 673.673 326.883 672.613 327.665 671.832C328.446 671.05 329.506 670.611 330.611 670.611C331.449 670.603 338.944 669.222 338.944 663.667C338.944 660.889 336.167 658.111 332 658.111C328.61 658.111 326.444 660.889 326.444 662.278C326.444 662.825 326.337 663.367 326.127 663.872C325.918 664.378 325.611 664.837 325.224 665.224C324.837 665.611 324.378 665.918 323.872 666.127C323.367 666.337 322.825 666.444 322.278 666.444C321.731 666.444 321.189 666.337 320.683 666.127C320.178 665.918 319.718 665.611 319.332 665.224C318.945 664.837 318.638 664.378 318.428 663.872C318.219 663.367 318.111 662.825 318.111 662.278C318.111 655.503 324.472 649.778 332 649.778C343.111 649.778 347.278 658.086 347.278 665.056C347.278 670.813 344.115 675.213 338.371 677.444C337.121 677.932 335.885 678.26 334.778 678.482V680.333C334.778 681.438 334.339 682.498 333.557 683.28C332.776 684.061 331.716 684.5 330.611 684.5Z" fill="#E97878"/>
<path d="M330.611 695.611C332.912 695.611 334.778 693.746 334.778 691.444C334.778 689.143 332.912 687.278 330.611 687.278C328.31 687.278 326.444 689.143 326.444 691.444C326.444 693.746 328.31 695.611 330.611 695.611Z" fill="#E97878"/>
<path d="M71.6111 690.5C70.506 690.5 69.4462 690.061 68.6648 689.28C67.8834 688.498 67.4444 687.438 67.4444 686.333V680.778C67.4444 679.673 67.8834 678.613 68.6648 677.832C69.4462 677.05 70.506 676.611 71.6111 676.611C72.4486 676.603 79.9444 675.222 79.9444 669.667C79.9444 666.889 77.1667 664.111 73 664.111C69.6097 664.111 67.4444 666.889 67.4444 668.278C67.4444 668.825 67.3367 669.367 67.1273 669.872C66.9179 670.378 66.611 670.837 66.2241 671.224C65.8371 671.611 65.3778 671.918 64.8723 672.127C64.3668 672.337 63.825 672.444 63.2778 672.444C62.7306 672.444 62.1888 672.337 61.6833 672.127C61.1777 671.918 60.7184 671.611 60.3315 671.224C59.9446 670.837 59.6377 670.378 59.4283 669.872C59.2189 669.367 59.1111 668.825 59.1111 668.278C59.1111 661.503 65.4722 655.778 73 655.778C84.1111 655.778 88.2778 664.086 88.2778 671.056C88.2778 676.813 85.1153 681.213 79.3708 683.444C78.1208 683.932 76.8847 684.26 75.7778 684.482V686.333C75.7778 687.438 75.3388 688.498 74.5574 689.28C73.776 690.061 72.7162 690.5 71.6111 690.5Z" fill="#9B5151"/>
<path d="M71.6111 701.611C73.9123 701.611 75.7778 699.746 75.7778 697.444C75.7778 695.143 73.9123 693.278 71.6111 693.278C69.3099 693.278 67.4444 695.143 67.4444 697.444C67.4444 699.746 69.3099 701.611 71.6111 701.611Z" fill="#9B5151"/>
<path d="M323.611 339.5C322.506 339.5 321.446 339.061 320.665 338.28C319.883 337.498 319.444 336.438 319.444 335.333V329.778C319.444 328.673 319.883 327.613 320.665 326.832C321.446 326.05 322.506 325.611 323.611 325.611C324.449 325.603 331.944 324.222 331.944 318.667C331.944 315.889 329.167 313.111 325 313.111C321.61 313.111 319.444 315.889 319.444 317.278C319.444 317.825 319.337 318.367 319.127 318.872C318.918 319.378 318.611 319.837 318.224 320.224C317.837 320.611 317.378 320.918 316.872 321.127C316.367 321.337 315.825 321.444 315.278 321.444C314.731 321.444 314.189 321.337 313.683 321.127C313.178 320.918 312.718 320.611 312.332 320.224C311.945 319.837 311.638 319.378 311.428 318.872C311.219 318.367 311.111 317.825 311.111 317.278C311.111 310.503 317.472 304.778 325 304.778C336.111 304.778 340.278 313.086 340.278 320.056C340.278 325.813 337.115 330.213 331.371 332.444C330.121 332.932 328.885 333.26 327.778 333.482V335.333C327.778 336.438 327.339 337.498 326.557 338.28C325.776 339.061 324.716 339.5 323.611 339.5Z" fill="#9B5151"/>
<path d="M323.611 350.611C325.912 350.611 327.778 348.746 327.778 346.444C327.778 344.143 325.912 342.278 323.611 342.278C321.31 342.278 319.444 344.143 319.444 346.444C319.444 348.746 321.31 350.611 323.611 350.611Z" fill="#9B5151"/>
<path d="M184.611 52.5001C183.506 52.5001 182.446 52.0611 181.665 51.2797C180.883 50.4983 180.444 49.4385 180.444 48.3334V42.7778C180.444 41.6728 180.883 40.613 181.665 39.8316C182.446 39.0502 183.506 38.6112 184.611 38.6112C185.449 38.6028 192.944 37.2223 192.944 31.6667C192.944 28.8889 190.167 26.1112 186 26.1112C182.61 26.1112 180.444 28.8889 180.444 30.2778C180.444 30.825 180.337 31.3668 180.127 31.8723C179.918 32.3779 179.611 32.8372 179.224 33.2241C178.837 33.611 178.378 33.9179 177.872 34.1273C177.367 34.3367 176.825 34.4445 176.278 34.4445C175.731 34.4445 175.189 34.3367 174.683 34.1273C174.178 33.9179 173.718 33.611 173.332 33.2241C172.945 32.8372 172.638 32.3779 172.428 31.8723C172.219 31.3668 172.111 30.825 172.111 30.2778C172.111 23.5028 178.472 17.7778 186 17.7778C197.111 17.7778 201.278 26.0862 201.278 33.0556C201.278 38.8126 198.115 43.2126 192.371 45.4445C191.121 45.932 189.885 46.2598 188.778 46.482V48.3334C188.778 49.4385 188.339 50.4983 187.557 51.2797C186.776 52.0611 185.716 52.5001 184.611 52.5001Z" fill="#E97878"/>
<path d="M184.611 63.6112C186.912 63.6112 188.778 61.7457 188.778 59.4445C188.778 57.1433 186.912 55.2778 184.611 55.2778C182.31 55.2778 180.444 57.1433 180.444 59.4445C180.444 61.7457 182.31 63.6112 184.611 63.6112Z" fill="#E97878"/>
<path d="M211.389 800.5C208.516 800.5 205.76 799.359 203.729 797.327C201.697 795.295 200.556 792.54 200.556 789.667V775.222C200.556 772.349 201.697 769.593 203.729 767.562C205.76 765.53 208.516 764.389 211.389 764.389C213.566 764.367 233.056 760.778 233.056 746.333C233.056 739.111 225.833 731.889 215 731.889C206.185 731.889 200.556 739.111 200.556 742.722C200.556 744.145 200.275 745.554 199.731 746.868C199.186 748.182 198.389 749.377 197.383 750.382C196.377 751.388 195.182 752.186 193.868 752.731C192.554 753.275 191.145 753.556 189.722 753.556C188.3 753.556 186.891 753.275 185.576 752.731C184.262 752.186 183.068 751.388 182.062 750.382C181.056 749.377 180.258 748.182 179.714 746.868C179.169 745.554 178.889 744.145 178.889 742.722C178.889 725.107 195.428 710.222 215 710.222C243.889 710.222 254.722 731.824 254.722 749.944C254.722 764.912 246.5 776.352 231.564 782.156C228.314 783.423 225.1 784.275 222.222 784.853V789.667C222.222 792.54 221.081 795.295 219.049 797.327C217.018 799.359 214.262 800.5 211.389 800.5Z" fill="#E97878"/>
<path d="M211.389 829.389C217.372 829.389 222.222 824.539 222.222 818.555C222.222 812.572 217.372 807.722 211.389 807.722C205.406 807.722 200.556 812.572 200.556 818.555C200.556 824.539 205.406 829.389 211.389 829.389Z" fill="#E97878"/>
<path d="M69.9444 295.5C67.5133 295.5 65.1817 294.534 63.4626 292.815C61.7435 291.096 60.7778 288.765 60.7778 286.334V274.111C60.7778 271.68 61.7435 269.349 63.4626 267.63C65.1817 265.91 67.5133 264.945 69.9444 264.945C71.7869 264.926 88.2778 261.889 88.2778 249.667C88.2778 243.556 82.1667 237.445 73 237.445C65.5414 237.445 60.7778 243.556 60.7778 246.611C60.7778 247.815 60.5407 249.007 60.08 250.119C59.6193 251.231 58.9441 252.242 58.0929 253.093C57.2417 253.944 56.2312 254.62 55.119 255.08C54.0069 255.541 52.8149 255.778 51.6111 255.778C50.4073 255.778 49.2153 255.541 48.1032 255.08C46.991 254.62 45.9805 253.944 45.1293 253.093C44.2781 252.242 43.6029 251.231 43.1422 250.119C42.6815 249.007 42.4444 247.815 42.4444 246.611C42.4444 231.706 56.4389 219.111 73 219.111C97.4444 219.111 106.611 237.39 106.611 252.722C106.611 265.388 99.6536 275.068 87.0158 279.978C84.2658 281.05 81.5464 281.772 79.1111 282.26V286.334C79.1111 288.765 78.1453 291.096 76.4263 292.815C74.7072 294.534 72.3756 295.5 69.9444 295.5Z" fill="#9B5151"/>
<path d="M69.9444 319.945C75.0071 319.945 79.1111 315.841 79.1111 310.778C79.1111 305.715 75.0071 301.611 69.9444 301.611C64.8818 301.611 60.7778 305.715 60.7778 310.778C60.7778 315.841 64.8818 319.945 69.9444 319.945Z" fill="#9B5151"/>
<path d="M214.778 340C213.01 340 211.314 339.298 210.064 338.047C208.813 336.797 208.111 335.101 208.111 333.333V324.444C208.111 322.676 208.813 320.981 210.064 319.73C211.314 318.48 213.01 317.778 214.778 317.778C216.118 317.764 228.111 315.555 228.111 306.667C228.111 302.222 223.667 297.778 217 297.778C211.576 297.778 208.111 302.222 208.111 304.444C208.111 305.32 207.939 306.187 207.604 306.996C207.269 307.804 206.778 308.539 206.158 309.158C205.539 309.777 204.804 310.269 203.996 310.604C203.187 310.939 202.32 311.111 201.444 311.111C200.569 311.111 199.702 310.939 198.893 310.604C198.084 310.269 197.349 309.777 196.73 309.158C196.111 308.539 195.62 307.804 195.285 306.996C194.95 306.187 194.778 305.32 194.778 304.444C194.778 293.604 204.956 284.444 217 284.444C234.778 284.444 241.444 297.738 241.444 308.889C241.444 318.1 236.384 325.14 227.193 328.711C225.193 329.491 223.216 330.015 221.444 330.371V333.333C221.444 335.101 220.742 336.797 219.492 338.047C218.242 339.298 216.546 340 214.778 340Z" fill="#9B5151"/>
<path d="M214.778 357.778C218.46 357.778 221.444 354.793 221.444 351.111C221.444 347.429 218.46 344.444 214.778 344.444C211.096 344.444 208.111 347.429 208.111 351.111C208.111 354.793 211.096 357.778 214.778 357.778Z" fill="#9B5151"/>
<path d="M214.778 340C213.01 340 211.314 339.298 210.064 338.047C208.813 336.797 208.111 335.101 208.111 333.333V324.444C208.111 322.676 208.813 320.981 210.064 319.73C211.314 318.48 213.01 317.778 214.778 317.778C216.118 317.764 228.111 315.555 228.111 306.667C228.111 302.222 223.667 297.778 217 297.778C211.576 297.778 208.111 302.222 208.111 304.444C208.111 305.32 207.939 306.187 207.604 306.996C207.269 307.804 206.778 308.539 206.158 309.158C205.539 309.777 204.804 310.269 203.996 310.604C203.187 310.939 202.32 311.111 201.444 311.111C200.569 311.111 199.702 310.939 198.893 310.604C198.084 310.269 197.349 309.777 196.73 309.158C196.111 308.539 195.62 307.804 195.285 306.996C194.95 306.187 194.778 305.32 194.778 304.444C194.778 293.604 204.956 284.444 217 284.444C234.778 284.444 241.444 297.738 241.444 308.889C241.444 318.1 236.384 325.14 227.193 328.711C225.193 329.491 223.216 330.015 221.444 330.371V333.333C221.444 335.101 220.742 336.797 219.492 338.047C218.242 339.298 216.546 340 214.778 340Z" fill="#9B5151"/>
<path d="M214.778 357.778C218.46 357.778 221.444 354.793 221.444 351.111C221.444 347.429 218.46 344.444 214.778 344.444C211.096 344.444 208.111 347.429 208.111 351.111C208.111 354.793 211.096 357.778 214.778 357.778Z" fill="#9B5151"/>
<path d="M96.7778 556C95.0097 556 93.314 555.298 92.0637 554.047C90.8135 552.797 90.1111 551.101 90.1111 549.333V540.444C90.1111 538.676 90.8135 536.981 92.0637 535.73C93.314 534.48 95.0097 533.778 96.7778 533.778C98.1178 533.764 110.111 531.555 110.111 522.667C110.111 518.222 105.667 513.778 99 513.778C93.5756 513.778 90.1111 518.222 90.1111 520.444C90.1111 521.32 89.9387 522.187 89.6036 522.996C89.2686 523.804 88.7775 524.539 88.1585 525.158C87.5394 525.777 86.8045 526.269 85.9957 526.604C85.1868 526.939 84.3199 527.111 83.4444 527.111C82.569 527.111 81.7021 526.939 80.8932 526.604C80.0844 526.269 79.3495 525.777 78.7304 525.158C78.1113 524.539 77.6203 523.804 77.2852 522.996C76.9502 522.187 76.7778 521.32 76.7778 520.444C76.7778 509.604 86.9556 500.444 99 500.444C116.778 500.444 123.444 513.738 123.444 524.889C123.444 534.1 118.384 541.14 109.193 544.711C107.193 545.491 105.216 546.015 103.444 546.371V549.333C103.444 551.101 102.742 552.797 101.492 554.047C100.242 555.298 98.5459 556 96.7778 556Z" fill="#E97878"/>
<path d="M96.7778 573.778C100.46 573.778 103.444 570.793 103.444 567.111C103.444 563.429 100.46 560.444 96.7778 560.444C93.0959 560.444 90.1111 563.429 90.1111 567.111C90.1111 570.793 93.0959 573.778 96.7778 573.778Z" fill="#E97878"/>
<path d="M104.778 422C103.01 422 101.314 421.298 100.064 420.047C98.8135 418.797 98.1111 417.101 98.1111 415.333V406.444C98.1111 404.676 98.8135 402.981 100.064 401.73C101.314 400.48 103.01 399.778 104.778 399.778C106.118 399.764 118.111 397.555 118.111 388.667C118.111 384.222 113.667 379.778 107 379.778C101.576 379.778 98.1111 384.222 98.1111 386.444C98.1111 387.32 97.9387 388.187 97.6036 388.996C97.2686 389.804 96.7775 390.539 96.1585 391.158C95.5394 391.777 94.8045 392.269 93.9957 392.604C93.1868 392.939 92.3199 393.111 91.4444 393.111C90.569 393.111 89.7021 392.939 88.8932 392.604C88.0844 392.269 87.3495 391.777 86.7304 391.158C86.1113 390.539 85.6203 389.804 85.2852 388.996C84.9502 388.187 84.7778 387.32 84.7778 386.444C84.7778 375.604 94.9556 366.444 107 366.444C124.778 366.444 131.444 379.738 131.444 390.889C131.444 400.1 126.384 407.14 117.193 410.711C115.193 411.491 113.216 412.015 111.444 412.371V415.333C111.444 417.101 110.742 418.797 109.492 420.047C108.242 421.298 106.546 422 104.778 422Z" fill="#9B5151"/>
<path d="M104.778 439.778C108.46 439.778 111.444 436.793 111.444 433.111C111.444 429.429 108.46 426.444 104.778 426.444C101.096 426.444 98.1111 429.429 98.1111 433.111C98.1111 436.793 101.096 439.778 104.778 439.778Z" fill="#9B5151"/>
<path d="M96.7778 126C95.0097 126 93.314 125.298 92.0637 124.047C90.8135 122.797 90.1111 121.101 90.1111 119.333V110.444C90.1111 108.676 90.8135 106.981 92.0637 105.73C93.314 104.48 95.0097 103.778 96.7778 103.778C98.1178 103.764 110.111 101.555 110.111 92.6666C110.111 88.2221 105.667 83.7777 99 83.7777C93.5756 83.7777 90.1111 88.2221 90.1111 90.4443C90.1111 91.3198 89.9387 92.1867 89.6036 92.9956C89.2686 93.8044 88.7775 94.5393 88.1585 95.1584C87.5394 95.7774 86.8045 96.2685 85.9957 96.6035C85.1868 96.9386 84.3199 97.111 83.4444 97.111C82.569 97.111 81.7021 96.9386 80.8932 96.6035C80.0844 96.2685 79.3495 95.7774 78.7304 95.1584C78.1113 94.5393 77.6203 93.8044 77.2852 92.9956C76.9502 92.1867 76.7778 91.3198 76.7778 90.4443C76.7778 79.6043 86.9556 70.4443 99 70.4443C116.778 70.4443 123.444 83.7377 123.444 94.8888C123.444 104.1 118.384 111.14 109.193 114.711C107.193 115.491 105.216 116.015 103.444 116.371V119.333C103.444 121.101 102.742 122.797 101.492 124.047C100.242 125.298 98.5459 126 96.7778 126Z" fill="#E97878"/>
<path d="M96.7778 143.778C100.46 143.778 103.444 140.793 103.444 137.111C103.444 133.429 100.46 130.444 96.7778 130.444C93.0959 130.444 90.1111 133.429 90.1111 137.111C90.1111 140.793 93.0959 143.778 96.7778 143.778Z" fill="#E97878"/>
<path d="M298.778 126C297.01 126 295.314 125.298 294.064 124.047C292.813 122.797 292.111 121.101 292.111 119.333V110.444C292.111 108.676 292.813 106.981 294.064 105.73C295.314 104.48 297.01 103.778 298.778 103.778C300.118 103.764 312.111 101.555 312.111 92.6666C312.111 88.2221 307.667 83.7777 301 83.7777C295.576 83.7777 292.111 88.2221 292.111 90.4443C292.111 91.3198 291.939 92.1867 291.604 92.9956C291.269 93.8044 290.778 94.5393 290.158 95.1584C289.539 95.7774 288.804 96.2685 287.996 96.6035C287.187 96.9386 286.32 97.111 285.444 97.111C284.569 97.111 283.702 96.9386 282.893 96.6035C282.084 96.2685 281.349 95.7774 280.73 95.1584C280.111 94.5393 279.62 93.8044 279.285 92.9956C278.95 92.1867 278.778 91.3198 278.778 90.4443C278.778 79.6043 288.956 70.4443 301 70.4443C318.778 70.4443 325.444 83.7377 325.444 94.8888C325.444 104.1 320.384 111.14 311.193 114.711C309.193 115.491 307.216 116.015 305.444 116.371V119.333C305.444 121.101 304.742 122.797 303.492 124.047C302.242 125.298 300.546 126 298.778 126Z" fill="#9B5151"/>
<path d="M298.778 143.778C302.46 143.778 305.444 140.793 305.444 137.111C305.444 133.429 302.46 130.444 298.778 130.444C295.096 130.444 292.111 133.429 292.111 137.111C292.111 140.793 295.096 143.778 298.778 143.778Z" fill="#9B5151"/>
<path d="M139.778 648C138.01 648 136.314 647.298 135.064 646.047C133.813 644.797 133.111 643.101 133.111 641.333V632.444C133.111 630.676 133.813 628.981 135.064 627.73C136.314 626.48 138.01 625.778 139.778 625.778C141.118 625.764 153.111 623.555 153.111 614.667C153.111 610.222 148.667 605.778 142 605.778C136.576 605.778 133.111 610.222 133.111 612.444C133.111 613.32 132.939 614.187 132.604 614.996C132.269 615.804 131.778 616.539 131.158 617.158C130.539 617.777 129.804 618.269 128.996 618.604C128.187 618.939 127.32 619.111 126.444 619.111C125.569 619.111 124.702 618.939 123.893 618.604C123.084 618.269 122.349 617.777 121.73 617.158C121.111 616.539 120.62 615.804 120.285 614.996C119.95 614.187 119.778 613.32 119.778 612.444C119.778 601.604 129.956 592.444 142 592.444C159.778 592.444 166.444 605.738 166.444 616.889C166.444 626.1 161.384 633.14 152.193 636.711C150.193 637.491 148.216 638.015 146.444 638.371V641.333C146.444 643.101 145.742 644.797 144.492 646.047C143.242 647.298 141.546 648 139.778 648Z" fill="#9B5151"/>
<path d="M139.778 665.778C143.46 665.778 146.444 662.793 146.444 659.111C146.444 655.429 143.46 652.444 139.778 652.444C136.096 652.444 133.111 655.429 133.111 659.111C133.111 662.793 136.096 665.778 139.778 665.778Z" fill="#9B5151"/>
<path d="M8.38889 617.5C5.51572 617.5 2.76021 616.359 0.728568 614.327C-1.30308 612.295 -2.44444 609.54 -2.44444 606.667V592.222C-2.44444 589.349 -1.30308 586.593 0.728568 584.562C2.76021 582.53 5.51572 581.389 8.38889 581.389C10.5664 581.367 30.0556 577.778 30.0556 563.333C30.0556 556.111 22.8333 548.889 12 548.889C3.18528 548.889 -2.44444 556.111 -2.44444 559.722C-2.44444 561.145 -2.72465 562.554 -3.26908 563.868C-3.8135 565.182 -4.61148 566.377 -5.61745 567.382C-6.62342 568.388 -7.81768 569.186 -9.13204 569.731C-10.4464 570.275 -11.8551 570.556 -13.2778 570.556C-14.7004 570.556 -16.1092 570.275 -17.4235 569.731C-18.7379 569.186 -19.9321 568.388 -20.9381 567.382C-21.9441 566.377 -22.742 565.182 -23.2865 563.868C-23.8309 562.554 -24.1111 561.145 -24.1111 559.722C-24.1111 542.107 -7.57222 527.222 12 527.222C40.8889 527.222 51.7222 548.824 51.7222 566.944C51.7222 581.912 43.4997 593.352 28.5642 599.156C25.3142 600.423 22.1003 601.275 19.2222 601.853V606.667C19.2222 609.54 18.0809 612.295 16.0492 614.327C14.0176 616.359 11.2621 617.5 8.38889 617.5Z" fill="#9B5151"/>
<path d="M8.38889 646.389C14.372 646.389 19.2222 641.539 19.2222 635.555C19.2222 629.572 14.372 624.722 8.38889 624.722C2.40581 624.722 -2.44444 629.572 -2.44444 635.555C-2.44444 641.539 2.40581 646.389 8.38889 646.389Z" fill="#9B5151"/>
<path d="M19.3889 85.4999C16.5157 85.4999 13.7602 84.3586 11.7286 82.3269C9.69692 80.2953 8.55556 77.5398 8.55556 74.6666V60.2222C8.55556 57.349 9.69692 54.5935 11.7286 52.5618C13.7602 50.5302 16.5157 49.3888 19.3889 49.3888C21.5664 49.3672 41.0556 45.7777 41.0556 31.3333C41.0556 24.1111 33.8333 16.8888 23 16.8888C14.1853 16.8888 8.55556 24.1111 8.55556 27.7222C8.55556 29.1448 8.27535 30.5535 7.73092 31.8679C7.1865 33.1823 6.38852 34.3765 5.38255 35.3825C4.37658 36.3885 3.18232 37.1864 1.86796 37.7309C0.553601 38.2753 -0.855122 38.5555 -2.27778 38.5555C-3.70043 38.5555 -5.10915 38.2753 -6.42351 37.7309C-7.73787 37.1864 -8.93213 36.3885 -9.9381 35.3825C-10.9441 34.3765 -11.742 33.1823 -12.2865 31.8679C-12.8309 30.5535 -13.1111 29.1448 -13.1111 27.7222C-13.1111 10.1072 3.42778 -4.77783 23 -4.77783C51.8889 -4.77783 62.7222 16.8238 62.7222 34.9444C62.7222 49.9124 54.4997 61.3524 39.5642 67.1555C36.3142 68.423 33.1003 69.2752 30.2222 69.853V74.6666C30.2222 77.5398 29.0809 80.2953 27.0492 82.3269C25.0176 84.3586 22.2621 85.4999 19.3889 85.4999Z" fill="#9B5151"/>
<path d="M19.3889 114.389C25.372 114.389 30.2222 109.539 30.2222 103.555C30.2222 97.5724 25.372 92.7222 19.3889 92.7222C13.4058 92.7222 8.55556 97.5724 8.55556 103.555C8.55556 109.539 13.4058 114.389 19.3889 114.389Z" fill="#9B5151"/>
<path d="M368.389 72.4999C365.516 72.4999 362.76 71.3586 360.729 69.3269C358.697 67.2953 357.556 64.5398 357.556 61.6666V47.2222C357.556 44.349 358.697 41.5935 360.729 39.5618C362.76 37.5302 365.516 36.3888 368.389 36.3888C370.566 36.3672 390.056 32.7777 390.056 18.3333C390.056 11.1111 382.833 3.88883 372 3.88883C363.185 3.88883 357.556 11.1111 357.556 14.7222C357.556 16.1448 357.275 17.5535 356.731 18.8679C356.186 20.1823 355.389 21.3765 354.383 22.3825C353.377 23.3885 352.182 24.1864 350.868 24.7309C349.554 25.2753 348.145 25.5555 346.722 25.5555C345.3 25.5555 343.891 25.2753 342.576 24.7309C341.262 24.1864 340.068 23.3885 339.062 22.3825C338.056 21.3765 337.258 20.1823 336.714 18.8679C336.169 17.5535 335.889 16.1448 335.889 14.7222C335.889 -2.89283 352.428 -17.7778 372 -17.7778C400.889 -17.7778 411.722 3.82383 411.722 21.9444C411.722 36.9124 403.5 48.3524 388.564 54.1555C385.314 55.423 382.1 56.2752 379.222 56.853V61.6666C379.222 64.5398 378.081 67.2953 376.049 69.3269C374.018 71.3586 371.262 72.4999 368.389 72.4999Z" fill="#E97878"/>
<path d="M368.389 101.389C374.372 101.389 379.222 96.5386 379.222 90.5555C379.222 84.5724 374.372 79.7222 368.389 79.7222C362.406 79.7222 357.556 84.5724 357.556 90.5555C357.556 96.5386 362.406 101.389 368.389 101.389Z" fill="#E97878"/>
<path d="M369.389 537.5C366.516 537.5 363.76 536.359 361.729 534.327C359.697 532.295 358.556 529.54 358.556 526.667V512.222C358.556 509.349 359.697 506.593 361.729 504.562C363.76 502.53 366.516 501.389 369.389 501.389C371.566 501.367 391.056 497.778 391.056 483.333C391.056 476.111 383.833 468.889 373 468.889C364.185 468.889 358.556 476.111 358.556 479.722C358.556 481.145 358.275 482.554 357.731 483.868C357.186 485.182 356.389 486.377 355.383 487.382C354.377 488.388 353.182 489.186 351.868 489.731C350.554 490.275 349.145 490.556 347.722 490.556C346.3 490.556 344.891 490.275 343.576 489.731C342.262 489.186 341.068 488.388 340.062 487.382C339.056 486.377 338.258 485.182 337.714 483.868C337.169 482.554 336.889 481.145 336.889 479.722C336.889 462.107 353.428 447.222 373 447.222C401.889 447.222 412.722 468.824 412.722 486.944C412.722 501.912 404.5 513.352 389.564 519.156C386.314 520.423 383.1 521.275 380.222 521.853V526.667C380.222 529.54 379.081 532.295 377.049 534.327C375.018 536.359 372.262 537.5 369.389 537.5Z" fill="#9B5151"/>
<path d="M369.389 566.389C375.372 566.389 380.222 561.539 380.222 555.555C380.222 549.572 375.372 544.722 369.389 544.722C363.406 544.722 358.556 549.572 358.556 555.555C358.556 561.539 363.406 566.389 369.389 566.389Z" fill="#9B5151"/>
<path d="M376.389 819.5C373.516 819.5 370.76 818.359 368.729 816.327C366.697 814.295 365.556 811.54 365.556 808.667V794.222C365.556 791.349 366.697 788.593 368.729 786.562C370.76 784.53 373.516 783.389 376.389 783.389C378.566 783.367 398.056 779.778 398.056 765.333C398.056 758.111 390.833 750.889 380 750.889C371.185 750.889 365.556 758.111 365.556 761.722C365.556 763.145 365.275 764.554 364.731 765.868C364.186 767.182 363.389 768.377 362.383 769.382C361.377 770.388 360.182 771.186 358.868 771.731C357.554 772.275 356.145 772.556 354.722 772.556C353.3 772.556 351.891 772.275 350.576 771.731C349.262 771.186 348.068 770.388 347.062 769.382C346.056 768.377 345.258 767.182 344.714 765.868C344.169 764.554 343.889 763.145 343.889 761.722C343.889 744.107 360.428 729.222 380 729.222C408.889 729.222 419.722 750.824 419.722 768.944C419.722 783.912 411.5 795.352 396.564 801.156C393.314 802.423 390.1 803.275 387.222 803.853V808.667C387.222 811.54 386.081 814.295 384.049 816.327C382.018 818.359 379.262 819.5 376.389 819.5Z" fill="#9B5151"/>
<path d="M376.389 848.389C382.372 848.389 387.222 843.539 387.222 837.555C387.222 831.572 382.372 826.722 376.389 826.722C370.406 826.722 365.556 831.572 365.556 837.555C365.556 843.539 370.406 848.389 376.389 848.389Z" fill="#9B5151"/>
<path d="M246.861 661.25C244.761 661.25 242.748 660.416 241.263 658.931C239.779 657.447 238.944 655.433 238.944 653.333V642.778C238.944 640.678 239.779 638.665 241.263 637.18C242.748 635.695 244.761 634.861 246.861 634.861C248.452 634.845 262.694 632.222 262.694 621.667C262.694 616.389 257.417 611.111 249.5 611.111C243.058 611.111 238.944 616.389 238.944 619.028C238.944 620.067 238.74 621.097 238.342 622.057C237.944 623.018 237.361 623.891 236.626 624.626C235.891 625.361 235.018 625.944 234.057 626.342C233.097 626.74 232.067 626.944 231.028 626.944C229.988 626.944 228.959 626.74 227.998 626.342C227.038 625.944 226.165 625.361 225.43 624.626C224.695 623.891 224.112 623.018 223.714 622.057C223.316 621.097 223.111 620.067 223.111 619.028C223.111 606.155 235.197 595.278 249.5 595.278C270.611 595.278 278.528 611.064 278.528 624.306C278.528 635.244 272.519 643.604 261.605 647.844C259.23 648.771 256.881 649.394 254.778 649.816V653.333C254.778 655.433 253.944 657.447 252.459 658.931C250.974 660.416 248.961 661.25 246.861 661.25Z" fill="#9B5151"/>
<path d="M246.861 682.361C251.233 682.361 254.778 678.817 254.778 674.444C254.778 670.072 251.233 666.528 246.861 666.528C242.489 666.528 238.944 670.072 238.944 674.444C238.944 678.817 242.489 682.361 246.861 682.361Z" fill="#9B5151"/>
<path d="M77.8611 855.25C75.7615 855.25 73.7478 854.416 72.2632 852.931C70.7785 851.447 69.9444 849.433 69.9444 847.333V836.778C69.9444 834.678 70.7785 832.665 72.2632 831.18C73.7478 829.695 75.7615 828.861 77.8611 828.861C79.4524 828.845 93.6944 826.222 93.6944 815.667C93.6944 810.389 88.4167 805.111 80.5 805.111C74.0585 805.111 69.9444 810.389 69.9444 813.028C69.9444 814.067 69.7397 815.097 69.3418 816.057C68.944 817.018 68.3608 817.891 67.6257 818.626C66.8906 819.361 66.0179 819.944 65.0574 820.342C64.0969 820.74 63.0674 820.944 62.0278 820.944C60.9881 820.944 59.9587 820.74 58.9982 820.342C58.0377 819.944 57.165 819.361 56.4299 818.626C55.6947 817.891 55.1116 817.018 54.7137 816.057C54.3159 815.097 54.1111 814.067 54.1111 813.028C54.1111 800.155 66.1972 789.278 80.5 789.278C101.611 789.278 109.528 805.064 109.528 818.306C109.528 829.244 103.519 837.604 92.6046 841.844C90.2296 842.771 87.881 843.394 85.7778 843.816V847.333C85.7778 849.433 84.9437 851.447 83.459 852.931C81.9744 854.416 79.9607 855.25 77.8611 855.25Z" fill="#E97878"/>
<path d="M125.861 760.25C123.761 760.25 121.748 759.416 120.263 757.931C118.779 756.447 117.944 754.433 117.944 752.333V741.778C117.944 739.678 118.779 737.665 120.263 736.18C121.748 734.695 123.761 733.861 125.861 733.861C127.452 733.845 141.694 731.222 141.694 720.667C141.694 715.389 136.417 710.111 128.5 710.111C122.058 710.111 117.944 715.389 117.944 718.028C117.944 719.067 117.74 720.097 117.342 721.057C116.944 722.018 116.361 722.891 115.626 723.626C114.891 724.361 114.018 724.944 113.057 725.342C112.097 725.74 111.067 725.944 110.028 725.944C108.988 725.944 107.959 725.74 106.998 725.342C106.038 724.944 105.165 724.361 104.43 723.626C103.695 722.891 103.112 722.018 102.714 721.057C102.316 720.097 102.111 719.067 102.111 718.028C102.111 705.155 114.197 694.278 128.5 694.278C149.611 694.278 157.528 710.064 157.528 723.306C157.528 734.244 151.519 742.604 140.605 746.844C138.23 747.771 135.881 748.394 133.778 748.816V752.333C133.778 754.433 132.944 756.447 131.459 757.931C129.974 759.416 127.961 760.25 125.861 760.25Z" fill="#9B5151"/>
<path d="M125.861 781.361C130.233 781.361 133.778 777.817 133.778 773.444C133.778 769.072 130.233 765.528 125.861 765.528C121.489 765.528 117.944 769.072 117.944 773.444C117.944 777.817 121.489 781.361 125.861 781.361Z" fill="#9B5151"/>
<path d="M11.8611 423.25C9.76148 423.25 7.74784 422.416 6.26318 420.931C4.77852 419.447 3.94444 417.433 3.94444 415.333V404.778C3.94444 402.678 4.77852 400.665 6.26318 399.18C7.74784 397.695 9.76148 396.861 11.8611 396.861C13.4524 396.845 27.6944 394.222 27.6944 383.667C27.6944 378.389 22.4167 373.111 14.5 373.111C8.05847 373.111 3.94444 378.389 3.94444 381.028C3.94444 382.067 3.73967 383.097 3.34182 384.057C2.94397 385.018 2.36084 385.891 1.62571 386.626C0.890576 387.361 0.0178483 387.944 -0.942646 388.342C-1.90314 388.74 -2.93259 388.944 -3.97222 388.944C-5.01185 388.944 -6.0413 388.74 -7.0018 388.342C-7.96229 387.944 -8.83502 387.361 -9.57015 386.626C-10.3053 385.891 -10.8884 385.018 -11.2863 384.057C-11.6841 383.097 -11.8889 382.067 -11.8889 381.028C-11.8889 368.155 0.197221 357.278 14.5 357.278C35.6111 357.278 43.5278 373.064 43.5278 386.306C43.5278 397.244 37.519 405.604 26.6046 409.844C24.2296 410.771 21.881 411.394 19.7778 411.816V415.333C19.7778 417.433 18.9437 419.447 17.459 420.931C15.9744 422.416 13.9607 423.25 11.8611 423.25Z" fill="#E97878"/>
<path d="M11.8611 444.361C16.2334 444.361 19.7778 440.817 19.7778 436.444C19.7778 432.072 16.2334 428.528 11.8611 428.528C7.48886 428.528 3.94445 432.072 3.94445 436.444C3.94445 440.817 7.48886 444.361 11.8611 444.361Z" fill="#E97878"/>
<path d="M369.861 264.25C367.761 264.25 365.748 263.416 364.263 261.931C362.779 260.447 361.944 258.433 361.944 256.333V245.778C361.944 243.678 362.779 241.665 364.263 240.18C365.748 238.695 367.761 237.861 369.861 237.861C371.452 237.845 385.694 235.222 385.694 224.667C385.694 219.389 380.417 214.111 372.5 214.111C366.058 214.111 361.944 219.389 361.944 222.028C361.944 223.067 361.74 224.097 361.342 225.057C360.944 226.018 360.361 226.891 359.626 227.626C358.891 228.361 358.018 228.944 357.057 229.342C356.097 229.74 355.067 229.944 354.028 229.944C352.988 229.944 351.959 229.74 350.998 229.342C350.038 228.944 349.165 228.361 348.43 227.626C347.695 226.891 347.112 226.018 346.714 225.057C346.316 224.097 346.111 223.067 346.111 222.028C346.111 209.155 358.197 198.278 372.5 198.278C393.611 198.278 401.528 214.064 401.528 227.306C401.528 238.244 395.519 246.604 384.605 250.844C382.23 251.771 379.881 252.394 377.778 252.816V256.333C377.778 258.433 376.944 260.447 375.459 261.931C373.974 263.416 371.961 264.25 369.861 264.25Z" fill="#E97878"/>
<path d="M369.861 285.361C374.233 285.361 377.778 281.817 377.778 277.444C377.778 273.072 374.233 269.528 369.861 269.528C365.489 269.528 361.944 273.072 361.944 277.444C361.944 281.817 365.489 285.361 369.861 285.361Z" fill="#E97878"/>
<path d="M12.8611 210.25C10.7615 210.25 8.74784 209.416 7.26318 207.931C5.77852 206.447 4.94444 204.433 4.94444 202.333V191.778C4.94444 189.678 5.77852 187.665 7.26318 186.18C8.74784 184.695 10.7615 183.861 12.8611 183.861C14.4524 183.845 28.6944 181.222 28.6944 170.667C28.6944 165.389 23.4167 160.111 15.5 160.111C9.05847 160.111 4.94444 165.389 4.94444 168.028C4.94444 169.067 4.73967 170.097 4.34182 171.057C3.94397 172.018 3.36084 172.891 2.62571 173.626C1.89058 174.361 1.01785 174.944 0.0573543 175.342C-0.90314 175.74 -1.93259 175.944 -2.97222 175.944C-4.01185 175.944 -5.0413 175.74 -6.0018 175.342C-6.96229 174.944 -7.83502 174.361 -8.57015 173.626C-9.30528 172.891 -9.88842 172.018 -10.2863 171.057C-10.6841 170.097 -10.8889 169.067 -10.8889 168.028C-10.8889 155.155 1.19722 144.278 15.5 144.278C36.6111 144.278 44.5278 160.064 44.5278 173.306C44.5278 184.244 38.519 192.604 27.6046 196.844C25.2296 197.771 22.881 198.394 20.7778 198.816V202.333C20.7778 204.433 19.9437 206.447 18.459 207.931C16.9744 209.416 14.9607 210.25 12.8611 210.25Z" fill="#9B5151"/>
<path d="M12.8611 231.361C17.2334 231.361 20.7778 227.817 20.7778 223.444C20.7778 219.072 17.2334 215.528 12.8611 215.528C8.48886 215.528 4.94445 219.072 4.94445 223.444C4.94445 227.817 8.48886 231.361 12.8611 231.361Z" fill="#9B5151"/>
<path d="M253.861 50.2501C251.761 50.2501 249.748 49.416 248.263 47.9313C246.779 46.4467 245.944 44.433 245.944 42.3334V31.7778C245.944 29.6782 246.779 27.6646 248.263 26.1799C249.748 24.6952 251.761 23.8612 253.861 23.8612C255.452 23.8453 269.694 21.2223 269.694 10.6667C269.694 5.38894 264.417 0.111165 256.5 0.111165C250.058 0.111165 245.944 5.38894 245.944 8.02783C245.944 9.06746 245.74 10.0969 245.342 11.0574C244.944 12.0179 244.361 12.8906 243.626 13.6258C242.891 14.3609 242.018 14.944 241.057 15.3419C240.097 15.7397 239.067 15.9445 238.028 15.9445C236.988 15.9445 235.959 15.7397 234.998 15.3419C234.038 14.944 233.165 14.3609 232.43 13.6258C231.695 12.8906 231.112 12.0179 230.714 11.0574C230.316 10.0969 230.111 9.06746 230.111 8.02783C230.111 -4.84467 242.197 -15.7222 256.5 -15.7222C277.611 -15.7222 285.528 0.0636647 285.528 13.3056C285.528 24.2438 279.519 32.6038 268.605 36.8445C266.23 37.7707 263.881 38.3935 261.778 38.8157V42.3334C261.778 44.433 260.944 46.4467 259.459 47.9313C257.974 49.416 255.961 50.2501 253.861 50.2501Z" fill="#9B5151"/>
<path d="M253.861 71.3612C258.233 71.3612 261.778 67.8168 261.778 63.4445C261.778 59.0722 258.233 55.5278 253.861 55.5278C249.489 55.5278 245.944 59.0722 245.944 63.4445C245.944 67.8168 249.489 71.3612 253.861 71.3612Z" fill="#9B5151"/>
<path d="M125.861 31.2501C123.761 31.2501 121.748 30.416 120.263 28.9313C118.779 27.4467 117.944 25.433 117.944 23.3334V12.7778C117.944 10.6782 118.779 8.66456 120.263 7.1799C121.748 5.69524 123.761 4.86116 125.861 4.86116C127.452 4.84533 141.694 2.22228 141.694 -8.33328C141.694 -13.6111 136.417 -18.8888 128.5 -18.8888C122.058 -18.8888 117.944 -13.6111 117.944 -10.9722C117.944 -9.93254 117.74 -8.90309 117.342 -7.94259C116.944 -6.9821 116.361 -6.10937 115.626 -5.37424C114.891 -4.63911 114.018 -4.05597 113.057 -3.65812C112.097 -3.26027 111.067 -3.0555 110.028 -3.0555C108.988 -3.0555 107.959 -3.26027 106.998 -3.65812C106.038 -4.05597 105.165 -4.63911 104.43 -5.37424C103.695 -6.10937 103.112 -6.9821 102.714 -7.94259C102.316 -8.90309 102.111 -9.93254 102.111 -10.9722C102.111 -23.8447 114.197 -34.7222 128.5 -34.7222C149.611 -34.7222 157.528 -18.9363 157.528 -5.69439C157.528 5.2438 151.519 13.6038 140.605 17.8445C138.23 18.7707 135.881 19.3935 133.778 19.8157V23.3334C133.778 25.433 132.944 27.4467 131.459 28.9313C129.974 30.416 127.961 31.2501 125.861 31.2501Z" fill="#9B5151"/>
<path d="M125.861 52.3612C130.233 52.3612 133.778 48.8168 133.778 44.4445C133.778 40.0722 130.233 36.5278 125.861 36.5278C121.489 36.5278 117.944 40.0722 117.944 44.4445C117.944 48.8168 121.489 52.3612 125.861 52.3612Z" fill="#9B5151"/>
<path d="M385.861 383.25C383.761 383.25 381.748 382.416 380.263 380.931C378.779 379.447 377.944 377.433 377.944 375.333V364.778C377.944 362.678 378.779 360.665 380.263 359.18C381.748 357.695 383.761 356.861 385.861 356.861C387.452 356.845 401.694 354.222 401.694 343.667C401.694 338.389 396.417 333.111 388.5 333.111C382.058 333.111 377.944 338.389 377.944 341.028C377.944 342.067 377.74 343.097 377.342 344.057C376.944 345.018 376.361 345.891 375.626 346.626C374.891 347.361 374.018 347.944 373.057 348.342C372.097 348.74 371.067 348.944 370.028 348.944C368.988 348.944 367.959 348.74 366.998 348.342C366.038 347.944 365.165 347.361 364.43 346.626C363.695 345.891 363.112 345.018 362.714 344.057C362.316 343.097 362.111 342.067 362.111 341.028C362.111 328.155 374.197 317.278 388.5 317.278C409.611 317.278 417.528 333.064 417.528 346.306C417.528 357.244 411.519 365.604 400.605 369.844C398.23 370.771 395.881 371.394 393.778 371.816V375.333C393.778 377.433 392.944 379.447 391.459 380.931C389.974 382.416 387.961 383.25 385.861 383.25Z" fill="#9B5151"/>
<path d="M385.861 404.361C390.233 404.361 393.778 400.817 393.778 396.444C393.778 392.072 390.233 388.528 385.861 388.528C381.489 388.528 377.944 392.072 377.944 396.444C377.944 400.817 381.489 404.361 385.861 404.361Z" fill="#9B5151"/>
<path d="M318.861 615.25C316.761 615.25 314.748 614.416 313.263 612.931C311.779 611.447 310.944 609.433 310.944 607.333V596.778C310.944 594.678 311.779 592.665 313.263 591.18C314.748 589.695 316.761 588.861 318.861 588.861C320.452 588.845 334.694 586.222 334.694 575.667C334.694 570.389 329.417 565.111 321.5 565.111C315.058 565.111 310.944 570.389 310.944 573.028C310.944 574.067 310.74 575.097 310.342 576.057C309.944 577.018 309.361 577.891 308.626 578.626C307.891 579.361 307.018 579.944 306.057 580.342C305.097 580.74 304.067 580.944 303.028 580.944C301.988 580.944 300.959 580.74 299.998 580.342C299.038 579.944 298.165 579.361 297.43 578.626C296.695 577.891 296.112 577.018 295.714 576.057C295.316 575.097 295.111 574.067 295.111 573.028C295.111 560.155 307.197 549.278 321.5 549.278C342.611 549.278 350.528 565.064 350.528 578.306C350.528 589.244 344.519 597.604 333.605 601.844C331.23 602.771 328.881 603.394 326.778 603.816V607.333C326.778 609.433 325.944 611.447 324.459 612.931C322.974 614.416 320.961 615.25 318.861 615.25Z" fill="#9B5151"/>
<path d="M318.861 636.361C323.233 636.361 326.778 632.817 326.778 628.444C326.778 624.072 323.233 620.528 318.861 620.528C314.489 620.528 310.944 624.072 310.944 628.444C310.944 632.817 314.489 636.361 318.861 636.361Z" fill="#9B5151"/>
<path d="M303.861 802.25C301.761 802.25 299.748 801.416 298.263 799.931C296.779 798.447 295.944 796.433 295.944 794.333V783.778C295.944 781.678 296.779 779.665 298.263 778.18C299.748 776.695 301.761 775.861 303.861 775.861C305.452 775.845 319.694 773.222 319.694 762.667C319.694 757.389 314.417 752.111 306.5 752.111C300.058 752.111 295.944 757.389 295.944 760.028C295.944 761.067 295.74 762.097 295.342 763.057C294.944 764.018 294.361 764.891 293.626 765.626C292.891 766.361 292.018 766.944 291.057 767.342C290.097 767.74 289.067 767.944 288.028 767.944C286.988 767.944 285.959 767.74 284.998 767.342C284.038 766.944 283.165 766.361 282.43 765.626C281.695 764.891 281.112 764.018 280.714 763.057C280.316 762.097 280.111 761.067 280.111 760.028C280.111 747.155 292.197 736.278 306.5 736.278C327.611 736.278 335.528 752.064 335.528 765.306C335.528 776.244 329.519 784.604 318.605 788.844C316.23 789.771 313.881 790.394 311.778 790.816V794.333C311.778 796.433 310.944 798.447 309.459 799.931C307.974 801.416 305.961 802.25 303.861 802.25Z" fill="#9B5151"/>
<path d="M303.861 823.361C308.233 823.361 311.778 819.817 311.778 815.444C311.778 811.072 308.233 807.528 303.861 807.528C299.489 807.528 295.944 811.072 295.944 815.444C295.944 819.817 299.489 823.361 303.861 823.361Z" fill="#9B5151"/>
<path d="M146.611 339.5C145.506 339.5 144.446 339.061 143.665 338.28C142.883 337.498 142.444 336.438 142.444 335.333V329.778C142.444 328.673 142.883 327.613 143.665 326.832C144.446 326.05 145.506 325.611 146.611 325.611C147.449 325.603 154.944 324.222 154.944 318.667C154.944 315.889 152.167 313.111 148 313.111C144.61 313.111 142.444 315.889 142.444 317.278C142.444 317.825 142.337 318.367 142.127 318.872C141.918 319.378 141.611 319.837 141.224 320.224C140.837 320.611 140.378 320.918 139.872 321.127C139.367 321.337 138.825 321.444 138.278 321.444C137.731 321.444 137.189 321.337 136.683 321.127C136.178 320.918 135.718 320.611 135.332 320.224C134.945 319.837 134.638 319.378 134.428 318.872C134.219 318.367 134.111 317.825 134.111 317.278C134.111 310.503 140.472 304.778 148 304.778C159.111 304.778 163.278 313.086 163.278 320.056C163.278 325.813 160.115 330.213 154.371 332.444C153.121 332.932 151.885 333.26 150.778 333.482V335.333C150.778 336.438 150.339 337.498 149.557 338.28C148.776 339.061 147.716 339.5 146.611 339.5Z" fill="#E97878"/>
<path d="M146.611 350.611C148.912 350.611 150.778 348.746 150.778 346.444C150.778 344.143 148.912 342.278 146.611 342.278C144.31 342.278 142.444 344.143 142.444 346.444C142.444 348.746 144.31 350.611 146.611 350.611Z" fill="#E97878"/>
<path d="M39.6111 765.5C38.506 765.5 37.4462 765.061 36.6648 764.28C35.8834 763.498 35.4444 762.438 35.4444 761.333V755.778C35.4444 754.673 35.8834 753.613 36.6648 752.832C37.4462 752.05 38.506 751.611 39.6111 751.611C40.4486 751.603 47.9444 750.222 47.9444 744.667C47.9444 741.889 45.1667 739.111 41 739.111C37.6097 739.111 35.4444 741.889 35.4444 743.278C35.4444 743.825 35.3367 744.367 35.1273 744.872C34.9179 745.378 34.611 745.837 34.2241 746.224C33.8371 746.611 33.3778 746.918 32.8723 747.127C32.3668 747.337 31.825 747.444 31.2778 747.444C30.7306 747.444 30.1888 747.337 29.6833 747.127C29.1777 746.918 28.7184 746.611 28.3315 746.224C27.9446 745.837 27.6377 745.378 27.4283 744.872C27.2189 744.367 27.1111 743.825 27.1111 743.278C27.1111 736.503 33.4722 730.778 41 730.778C52.1111 730.778 56.2778 739.086 56.2778 746.056C56.2778 751.813 53.1153 756.213 47.3708 758.444C46.1208 758.932 44.8847 759.26 43.7778 759.482V761.333C43.7778 762.438 43.3388 763.498 42.5574 764.28C41.776 765.061 40.7162 765.5 39.6111 765.5Z" fill="#9B5151"/>
<path d="M39.6111 776.611C41.9123 776.611 43.7778 774.746 43.7778 772.444C43.7778 770.143 41.9123 768.278 39.6111 768.278C37.3099 768.278 35.4444 770.143 35.4444 772.444C35.4444 774.746 37.3099 776.611 39.6111 776.611Z" fill="#9B5151"/>
<path d="M48.6111 505.5C47.506 505.5 46.4462 505.061 45.6648 504.28C44.8834 503.498 44.4444 502.438 44.4444 501.333V495.778C44.4444 494.673 44.8834 493.613 45.6648 492.832C46.4462 492.05 47.506 491.611 48.6111 491.611C49.4486 491.603 56.9444 490.222 56.9444 484.667C56.9444 481.889 54.1667 479.111 50 479.111C46.6097 479.111 44.4444 481.889 44.4444 483.278C44.4444 483.825 44.3367 484.367 44.1273 484.872C43.9179 485.378 43.611 485.837 43.2241 486.224C42.8371 486.611 42.3778 486.918 41.8723 487.127C41.3668 487.337 40.825 487.444 40.2778 487.444C39.7306 487.444 39.1888 487.337 38.6833 487.127C38.1777 486.918 37.7184 486.611 37.3315 486.224C36.9446 485.837 36.6377 485.378 36.4283 484.872C36.2189 484.367 36.1111 483.825 36.1111 483.278C36.1111 476.503 42.4722 470.778 50 470.778C61.1111 470.778 65.2778 479.086 65.2778 486.056C65.2778 491.813 62.1153 496.213 56.3708 498.444C55.1208 498.932 53.8847 499.26 52.7778 499.482V501.333C52.7778 502.438 52.3388 503.498 51.5574 504.28C50.776 505.061 49.7162 505.5 48.6111 505.5Z" fill="#9B5151"/>
<path d="M48.6111 516.611C50.9123 516.611 52.7778 514.746 52.7778 512.444C52.7778 510.143 50.9123 508.278 48.6111 508.278C46.3099 508.278 44.4444 510.143 44.4444 512.444C44.4444 514.746 46.3099 516.611 48.6111 516.611Z" fill="#9B5151"/>
</g>
<defs>
<linearGradient id="paint0_linear_23_24" x1="195" y1="0" x2="195" y2="844" gradientUnits="userSpaceOnUse">
<stop stop-color="#FFEE93" stop-opacity="0.7"/>
<stop offset="1" stop-color="#F5D782"/>
</linearGradient>
<clipPath id="clip0_23_24">
<rect width="390" height="844" fill="white"/>
</clipPath>
</defs>
</svg>
