<svg width="260" height="260" viewBox="0 0 260 260" fill="none" xmlns="http://www.w3.org/2000/svg">
<circle cx="130" cy="130" r="130" fill="#FFEE93"/>
<path d="M126.389 164.5C123.516 164.5 120.76 163.359 118.729 161.327C116.697 159.295 115.556 156.54 115.556 153.667V139.222C115.556 136.349 116.697 133.593 118.729 131.562C120.76 129.53 123.516 128.389 126.389 128.389C128.566 128.367 148.056 124.778 148.056 110.333C148.056 103.111 140.833 95.8888 130 95.8888C121.185 95.8888 115.556 103.111 115.556 106.722C115.556 108.145 115.275 109.554 114.731 110.868C114.187 112.182 113.389 113.377 112.383 114.382C111.377 115.388 110.182 116.186 108.868 116.731C107.554 117.275 106.145 117.556 104.722 117.556C103.3 117.556 101.891 117.275 100.577 116.731C99.2622 116.186 98.0679 115.388 97.0619 114.382C96.056 113.377 95.258 112.182 94.7136 110.868C94.1691 109.554 93.8889 108.145 93.8889 106.722C93.8889 89.1072 110.428 74.2222 130 74.2222C158.889 74.2222 169.722 95.8238 169.722 113.944C169.722 128.912 161.5 140.352 146.564 146.156C143.314 147.423 140.1 148.275 137.222 148.853V153.667C137.222 156.54 136.081 159.295 134.049 161.327C132.018 163.359 129.262 164.5 126.389 164.5Z" fill="#E97878"/>
<path d="M126.389 193.389C132.372 193.389 137.222 188.539 137.222 182.555C137.222 176.572 132.372 171.722 126.389 171.722C120.406 171.722 115.556 176.572 115.556 182.555C115.556 188.539 120.406 193.389 126.389 193.389Z" fill="#E97878"/>
</svg>
